<svg width="528" height="396" xmlns="http://www.w3.org/2000/svg" xmlns:xlink="http://www.w3.org/1999/xlink"><defs><linearGradient x1="50%" y1="100%" x2="100%" y2="0%" id="a"><stop stop-color="#72DDCD" offset="0%"/><stop stop-color="#C0FFF6" offset="100%"/></linearGradient><linearGradient x1="55.805%" y1="50%" x2="7.49%" y2="19.765%" id="c"><stop stop-color="#39AFBD" offset="0%"/><stop stop-color="#72DDCD" offset="100%"/></linearGradient><linearGradient x1="8.349%" y1="100%" x2="91.596%" y2="12.402%" id="d"><stop stop-color="#3BAEBC" offset="0%"/><stop stop-color="#3FB1BD" offset="40.616%"/><stop stop-color="#72DDCD" offset="100%"/></linearGradient><path id="b" d="M155.294 122.863l29.285 96.675L319.005 85.706z"/><path id="f" d="M5.513 204.721l55.984-67.886 101.465 51.555-90.242 71.794z"/><filter x="-68.6%" y="-68.1%" width="237.2%" height="275.1%" filterUnits="objectBoundingBox" id="e"><feOffset dy="24" in="SourceAlpha" result="shadowOffsetOuter1"/><feGaussianBlur stdDeviation="32" in="shadowOffsetOuter1" result="shadowBlurOuter1"/><feColorMatrix values="0 0 0 0 0.180392157 0 0 0 0 0.180392157 0 0 0 0 0.239215686 0 0 0 0.16 0" in="shadowBlurOuter1"/></filter></defs><g fill="none" fill-rule="evenodd"><g transform="translate(167 99)"><path stroke="#E2E2E9" stroke-width="1.5" d="M89 4l49 80-100.266 54.551z"/><circle fill="#6B6B78" transform="rotate(-27 89.5 5.5)" cx="89.5" cy="5.5" r="3.5"/><path stroke="#E2E2E9" stroke-width="1.5" d="M17 143L5 47l123 34zM138 91l47 105H34z"/><circle fill="#6B6B78" transform="rotate(-27 5.5 47.5)" cx="5.5" cy="47.5" r="3.5"/></g><g transform="rotate(-152 232.97 212.498)"><path fill="url(#a)" d="M0 402.643l149.56-7.66 169.895-309.45z"/><use fill="url(#c)" xlink:href="#b"/><path fill="url(#d)" d="M154.974 122.392L248.27 0l-3.867 102.838z"/><path fill="#72DDCD" d="M382.982 214.033l15.033 61.412-58.01 19.113z"/><use fill="#000" filter="url(#e)" xlink:href="#f"/><use fill="#FFF" xlink:href="#f"/><path fill="#6B6B78" d="M363.252 177.694l-.24-31.498 30.773-1.885z"/><path fill="#72DDCD" d="M318.845 197.385l18.704-10.717 11.296 18z"/></g></g></svg>