<svg width="528" height="396" xmlns="http://www.w3.org/2000/svg" xmlns:xlink="http://www.w3.org/1999/xlink"><defs><linearGradient x1="50%" y1="100%" x2="100%" y2="0%" id="a"><stop stop-color="#72DDCD" offset="0%"/><stop stop-color="#C0FFF6" offset="100%"/></linearGradient><linearGradient x1="78.189%" y1="50%" x2="29.034%" y2="31.686%" id="c"><stop stop-color="#39AFBD" offset="0%"/><stop stop-color="#72DDCD" offset="100%"/></linearGradient><linearGradient x1="61.216%" y1="88.252%" x2="16.78%" y2="24.653%" id="d"><stop stop-color="#3BAEBC" offset="0%"/><stop stop-color="#72DDCD" offset="100%"/></linearGradient><path id="b" d="M337.25 175.08L229.24 99.437l194.011-11.312z"/><path id="f" d="M60.098 146.865l55.984-67.886 101.464 51.556-90.242 71.794z"/><filter x="-68.6%" y="-68.1%" width="237.2%" height="275.1%" filterUnits="objectBoundingBox" id="e"><feOffset dy="24" in="SourceAlpha" result="shadowOffsetOuter1"/><feGaussianBlur stdDeviation="32" in="shadowOffsetOuter1" result="shadowBlurOuter1"/><feColorMatrix values="0 0 0 0 0.180392157 0 0 0 0 0.180392157 0 0 0 0 0.239215686 0 0 0 0.16 0" in="shadowBlurOuter1"/></filter></defs><g fill="none" fill-rule="evenodd"><g transform="rotate(27 -45.66 546.826)"><path stroke="#E2E2E9" stroke-width="1.5" d="M191.46 209.762L5.572 193.475 209.876 6.325z"/><path stroke="#E2E2E9" stroke-width="1.5" d="M99.146 210.614l52.292 7.816 93.93-128.335-52.526-85.469z"/><path stroke="#E2E2E9" stroke-width="1.5" d="M114.917 226.148L70.544 91.909l156.01 45.437z"/><circle fill="#6B6B78" transform="rotate(-27 70.288 91.2)" cx="70.288" cy="91.2" r="3.5"/><circle fill="#6B6B78" transform="rotate(-27 5.317 192.767)" cx="5.317" cy="192.767" r="3.5"/><path stroke="#E2E2E9" stroke-width="1.5" d="M294.43 131.315l-94.804 1.166 46.816-77.725z"/><circle fill="#6B6B78" cx="293.757" cy="131.096" r="3.5"/></g><g transform="rotate(27 221.304 365.135)"><path fill="url(#a)" d="M139.69 372.117l149.561-7.661 134.44-276.34z"/><use fill="url(#c)" xlink:href="#b"/><path fill="url(#d)" d="M288.251 96.306l-59.01 3.132 29.734-89.224z"/><path fill="#72DDCD" d="M11.765 257.167l38.264-50.33 51.36 33.054z"/><use fill="#000" filter="url(#e)" xlink:href="#f"/><use fill="#FFF" xlink:href="#f"/><path fill="#6B6B78" d="M183.415 33.403l-.24-31.498L213.948.02z"/><path fill="#72DDCD" d="M124.393 48.17l18.704-10.717 11.296 18z"/></g></g></svg>