<svg width="528" height="396" xmlns="http://www.w3.org/2000/svg" xmlns:xlink="http://www.w3.org/1999/xlink"><defs><linearGradient x1="0%" y1="36.263%" x2="100%" y2="97.44%" id="a"><stop stop-color="#72DDCD" offset="0%"/><stop stop-color="#C0FFF6" offset="100%"/></linearGradient><linearGradient x1="24.708%" y1="78.945%" x2="72.191%" y2="36.269%" id="b"><stop stop-color="#4DB0BC" offset="0%"/><stop stop-color="#72DDCD" offset="100%"/></linearGradient><linearGradient x1="61.216%" y1="88.252%" x2="0%" y2="6.991%" id="c"><stop stop-color="#3BAEBC" offset="0%"/><stop stop-color="#72DDCD" offset="100%"/></linearGradient><filter x="-62.3%" y="-51.1%" width="224.6%" height="245.2%" filterUnits="objectBoundingBox" id="d"><feOffset dy="24" in="SourceAlpha" result="shadowOffsetOuter1"/><feGaussianBlur stdDeviation="23" in="shadowOffsetOuter1" result="shadowBlurOuter1"/><feColorMatrix values="0 0 0 0 0.180392157 0 0 0 0 0.180392157 0 0 0 0 0.239215686 0 0 0 0.16 0" in="shadowBlurOuter1"/></filter><path id="e" d="M305.178 91.46L367.018 2l68.16 74.573-65 37z"/></defs><g fill="none" fill-rule="evenodd"><g transform="translate(56 152)"><path stroke="#E2E2E9" stroke-width="1.5" d="M84 163L0 94.15 120 5z"/><circle fill="#6B6B78" transform="rotate(-27 119.5 5.5)" cx="119.5" cy="5.5" r="3.5"/><path stroke="#E2E2E9" stroke-width="1.5" d="M286 129L94 186l-47-75z"/><path stroke="#E2E2E9" stroke-width="1.5" d="M300 221l-90-35 60-55zM186.508 66.54l-43 125-133-79z"/><circle fill="#6B6B78" transform="rotate(-27 223.5 190.5)" cx="223.5" cy="190.5" r="3.5"/><circle fill="#6B6B78" transform="rotate(-27 185.5 67.5)" cx="185.5" cy="67.5" r="3.5"/><circle fill="#6B6B78" transform="rotate(-27 299.5 220.5)" cx="299.5" cy="220.5" r="3.5"/></g><path fill="url(#a)" d="M.178 51l251.857 279.778L.5 219.84z" transform="translate(-.178 64)"/><path fill="url(#b)" d="M179.624 250.341l220.242-74.589-148 155z" transform="translate(-.178 64)"/><path fill="url(#c)" d="M400.178 176l-81 27-37-71z" transform="translate(-.178 64)"/><path fill="#72DDCD" d="M222.084 180.747l12.808-40.179 39.696 10.156z"/><path fill="#6B6B78" d="M214.147 119.306l-34.903-8.483 11.872-32.11z"/><path fill="#72DDCD" d="M105.946 354.602l-8.488 19.815-19.854-7.577z"/><g transform="rotate(-179 370.368 89.787)"><use fill="#000" filter="url(#d)" xlink:href="#e"/><use fill="#FFF" xlink:href="#e"/></g></g></svg>