<svg width="712" height="400" xmlns="http://www.w3.org/2000/svg" xmlns:xlink="http://www.w3.org/1999/xlink"><defs><linearGradient x1="100%" y1="0%" x2="0%" y2="100%" id="b"><stop stop-color="#007F8D" offset="0%"/><stop stop-color="#161E2A" offset="100%"/></linearGradient><linearGradient x1="50%" y1="1.729%" x2="50%" y2="100%" id="c"><stop stop-color="#235364" stop-opacity="0" offset="0%"/><stop stop-color="#235364" offset="100%"/></linearGradient><linearGradient x1="0%" y1="36.263%" x2="100%" y2="97.44%" id="e"><stop stop-color="#72DDCD" offset="0%"/><stop stop-color="#C0FFF6" offset="100%"/></linearGradient><linearGradient x1="24.708%" y1="78.945%" x2="72.191%" y2="36.269%" id="f"><stop stop-color="#1C5258" offset="0%"/><stop stop-color="#72DDCD" offset="100%"/></linearGradient><linearGradient x1="9.899%" y1="60.756%" x2="94.017%" y2="100%" id="g"><stop stop-color="#32818A" offset="0%"/><stop stop-color="#72DDCD" offset="100%"/></linearGradient><path id="a" d="M0 0h712v400H0z"/></defs><g fill="none" fill-rule="evenodd"><mask id="d" fill="#fff"><use xlink:href="#a"/></mask><use fill="url(#b)" xlink:href="#a"/><circle fill="url(#c)" mask="url(#d)" cx="41.5" cy="198.5" r="117.5"/><g mask="url(#d)"><path fill="url(#e)" d="M0 0l251.857 279.778L.321 168.84z" transform="translate(-37 60)"/><path fill="url(#f)" d="M179 198.341L281.376 68l-30.134 210.752z" transform="translate(-37 60)"/><path fill="url(#g)" transform="rotate(26 177.891 78.153)" d="M393.272 145.388l-111.975 16.785L259.4 94.398z"/><path fill="#72DDCD" d="M393.342 199l-8.488 19.815L365 211.238z"/><path fill="#72DDCD" opacity=".32" d="M351.842 277.038l36.345-6.461 7.409 35.28z"/></g></g></svg>