<svg id="Layer_1" data-name="Layer 1" xmlns="http://www.w3.org/2000/svg" viewBox="0 0 374.38 362.48"><defs><style>.cls-1,.cls-2,.cls-3{fill:none;stroke:#bcbcbc;}.cls-1,.cls-2{stroke-miterlimit:10;}.cls-1{stroke-width:7px;}.cls-2,.cls-3{stroke-width:6px;}.cls-3{stroke-linejoin:round;}</style></defs><line class="cls-1" x1="143.91" y1="280.76" x2="143.91" y2="306.23"/><line class="cls-2" x1="228.81" y1="280.76" x2="228.81" y2="306.23"/><polygon class="cls-3" points="270.62 326.48 107.33 326.48 129.54 306.23 243.84 306.23 270.62 326.48"/><path class="cls-2" d="M268.44,328.44v14.69s.32,4.25-4.37,6.86H116.84s-6.88,0-7.5-6.2V328.44"/><path class="cls-2" d="M80.22,151c19.75-2.56,39.67.33,59.41,1.13,4.22,8.91,25.84.59,34.65.77,8,.17,15.76,3.76,23.81,4,15.09.48,30.24-3.3,45.44-2.28,16.68,1.11,36.62-.64,51.7,1.2"/><path class="cls-2" d="M79.23,166.9c7.61-1.46,32.23-9.15,34.79.86,14-3,21.62.49,34.79.31,12.54-.18,23.31,1.14,35.33,1.74,11.54.56,19.87-1.49,30.85,1.93,8.06,2.51,26,3.42,29.71-2"/><rect class="cls-2" x="26.03" y="25.37" width="322.91" height="239.76" rx="3.6"/><rect class="cls-2" x="12.82" y="11.4" width="349.34" height="267.7" rx="3.6"/><rect class="cls-2" x="50.47" y="133.62" width="275.27" height="54.16" rx="3.6"/><rect class="cls-1" x="213.69" y="62.47" width="28.23" height="11.94"/><line class="cls-1" x1="257.21" y1="68.44" x2="283.6" y2="68.44"/><line class="cls-1" x1="296.21" y1="56.67" x2="319.74" y2="80.21"/><line class="cls-1" x1="296.21" y1="80.21" x2="319.74" y2="56.67"/></svg>