<svg id="Layer_1" data-name="Layer 1" xmlns="http://www.w3.org/2000/svg" viewBox="0 0 839.05 430.22"><defs><style>.cls-1,.cls-2{fill:none;stroke:#bcbcbc;stroke-miterlimit:10;}.cls-1{stroke-width:6px;}.cls-2{stroke-width:7px;}.cls-3{fill:#bcbcbc;}.cls-4{fill:#fff;}</style></defs><rect class="cls-1" x="512.48" y="113.07" width="300.72" height="223.28" rx="3.6" transform="translate(887.56 -438.13) rotate(90)"/><rect class="cls-1" x="500.18" y="100.06" width="325.33" height="249.3" rx="3.6" transform="translate(887.56 -438.13) rotate(90)"/><rect class="cls-2" x="639.36" y="109.38" width="28.23" height="11.94"/><line class="cls-2" x1="682.87" y1="115.35" x2="709.26" y2="115.35"/><line class="cls-2" x1="721.87" y1="103.58" x2="745.4" y2="127.12"/><line class="cls-2" x1="721.87" y1="127.12" x2="745.4" y2="103.58"/><path class="cls-1" d="M583.07,194.31c6-1.68,12.94-2.79,19-1.37,3.79.89,7.32,2.26,11.29,1.61,3.45-.57,6.78-2.43,10.28-2.77,5.09-.49,10.13,1.64,15.37,1.55a147.07,147.07,0,0,1,20.26.66,139.71,139.71,0,0,0,29.55.36c8.15-.86,16.07-.89,24.15-1.83,8.83-1,18.53,1.78,26.72,1.46"/><path class="cls-1" d="M581.46,245.65c8.1,0,15.45-1.2,23.43-2.31,2.19-.3,7.07-1.36,9.13-.22s2.13,3.89,4.66,4c2.77.09,6.68-2.27,9.54-2.76a31.75,31.75,0,0,1,5.14-.37,33.38,33.38,0,0,1,7.25.76c10,2,20.16,1,30.25.92,8.81,0,16.64-1.46,25.43-.42a179.92,179.92,0,0,0,21.05.75c8,0,15.95.11,24,0"/><path class="cls-1" d="M581.62,298.11c2.57.77,5.44.22,8.1.32,6.36.24,14.81,1.77,20.54-1.87,2,4.88,10.39,1.89,14.11,1.55,5.75-.54,11.31.17,17.08.42a121.63,121.63,0,0,1,13.42,1.17,24.59,24.59,0,0,0,8,0c3.56-.58,7.71-3.18,11.25-3.26,2.89-.06,5.76,1.55,8.55,2.25A73.1,73.1,0,0,0,701,300.79c5.68,0,12,1.16,17.61.68,2.71-.23,4.35-1.61,6.79-2.69,4.82-2.13,10.52-.81,15.78-.33"/><rect class="cls-1" x="568.06" y="233.11" width="186.67" height="27.97" rx="3.6"/><rect class="cls-1" x="568.06" y="180.09" width="186.67" height="27.97" rx="3.6"/><rect class="cls-1" x="568.06" y="285.9" width="186.67" height="27.97" rx="3.6"/><rect class="cls-1" x="38.91" y="108.68" width="300.72" height="223.28" rx="3.6" transform="translate(409.59 31.05) rotate(90)"/><rect class="cls-1" x="26.6" y="95.67" width="325.33" height="249.3" rx="3.6" transform="translate(409.59 31.05) rotate(90)"/><rect class="cls-2" x="165.78" y="104.98" width="28.23" height="11.94"/><line class="cls-2" x1="209.3" y1="110.95" x2="235.68" y2="110.95"/><line class="cls-2" x1="248.29" y1="99.18" x2="271.83" y2="122.72"/><line class="cls-2" x1="248.29" y1="122.72" x2="271.83" y2="99.18"/><path class="cls-2" d="M438.79,39.94V78.26l44.26,73.48s14.53,29.82-17.17,33.52H418.13"/><path class="cls-2" d="M422.94,39.94h21.14s23-25.76,0-25.76H422.94"/><path class="cls-2" d="M407.4,39.94V78.26l-44.25,73.48s-14.54,29.82,17.17,33.52h47.75"/><path class="cls-2" d="M423.26,39.94H402.12s-23.05-25.76,0-25.76h21.14"/><path class="cls-3" d="M425.87,127.11c3.52-2.47,6.66-4.66,6.66-8.37s-2.86-6.85-9-6.85c-5.8,0-10,2.66-13.23,6.66l-6.37-7.14A26.32,26.32,0,0,1,424.63,102c12,0,19.31,6.38,19.31,14.94,0,7.9-5.32,11.7-10.08,15-3.62,2.67-6.95,4.95-6.95,8.75A6,6,0,0,0,429,145l-8.38,2.75a10.84,10.84,0,0,1-3.42-8.08C417.21,133.29,421.78,130.06,425.87,127.11Zm-1.81,27a6.66,6.66,0,1,1-6.66,6.66A6.74,6.74,0,0,1,424.06,154.13Z"/><path class="cls-4" d="M46.1,422a51.88,51.88,0,0,1-9.82-1c-15.4-3-25.71-16.65-24.51-32.49a42.59,42.59,0,0,1,2.73-12.73c4.69-11.56,9.68-23.2,14.5-34.45,1.36-3.19,2.73-6.37,4.08-9.55,1.58-3.68,4.75-6,8.29-6a8.45,8.45,0,0,1,2.17.28,8.78,8.78,0,0,1,5.75,4.48c.06.11.11.22.16.33q1.09-2.54,2.2-5.05a12.36,12.36,0,0,1,4.14-5.06,7.82,7.82,0,0,1,4.43-1.39,8.26,8.26,0,0,1,5.06,1.78,9.36,9.36,0,0,1,2.87,3.52,13.21,13.21,0,0,1,3.34-4.38,7.7,7.7,0,0,1,5-1.76A9.11,9.11,0,0,1,82,320.51a8.72,8.72,0,0,1,2.94,9.36c-.28.92-.62,1.79-1,2.64a8.15,8.15,0,0,1,2.79-.49,8.78,8.78,0,0,1,1.9.21,8.66,8.66,0,0,1,6,4.36,9,9,0,0,1,.29,7.67c-1.4,3.56-2.92,7.11-4.39,10.54l-1.74,4.07q-1.31,3.12-2.64,6.22l-2.43,5.73h0s-4.85,11.42-7,16.42c1.66-1.24,3.31-2.5,4.92-3.74l1.13-.86a9.22,9.22,0,0,1,5.63-2.09,8.19,8.19,0,0,1,2.91.54,8.75,8.75,0,0,1,6,7c.35,2.36,0,5.78-3.8,8.65l-6.27,4.77c-4.9,3.71-10,7.55-14.88,11.39A41.59,41.59,0,0,1,46.1,422Z"/><path class="cls-3" d="M76.44,322.07a5.66,5.66,0,0,1,3.38,1.21,5.2,5.2,0,0,1,1.73,5.56c-.39,1.25-.91,2.46-1.42,3.67-4.6,10.81-9.22,21.62-13.78,32.45-.42,1-1.55,2.23.14,3.22a3.8,3.8,0,0,0,1.71.65c.7,0,1.16-.57,1.71-1.85,3.94-9.22,7.85-18.45,11.8-27.66,1.06-2.47,2.89-3.79,5-3.79a5.79,5.79,0,0,1,1.16.12c3.37.73,5.08,3.88,3.72,7.33-1.92,4.88-4,9.69-6.09,14.53l-3.81,9h0q-4.62,10.88-9.24,21.76a7.19,7.19,0,0,0-.87,2.31,3.91,3.91,0,0,0,.65,2.7,1.18,1.18,0,0,0,.77.2,3.42,3.42,0,0,0,1.76-.48c3.43-2.43,6.75-5,10.09-7.55a5.74,5.74,0,0,1,3.5-1.37,4.91,4.91,0,0,1,1.68.31,5.29,5.29,0,0,1,3.75,4.25A5.45,5.45,0,0,1,91.31,394c-7.07,5.39-14.18,10.71-21.19,16.19a38,38,0,0,1-24,8.34,48.13,48.13,0,0,1-9.15-.92c-13.66-2.64-22.75-14.77-21.69-28.79a39.3,39.3,0,0,1,2.49-11.68c6-14.73,12.32-29.31,18.55-43.94,1.06-2.47,3-3.84,5.07-3.84a4.75,4.75,0,0,1,1.28.17,5.13,5.13,0,0,1,3.59,7.24c-1.77,4.51-3.73,8.93-5.62,13.39-.53,1.27-1,2.56-1.63,3.81-.66,1.42-.6,2.35,1.09,3a2.69,2.69,0,0,0,1,.24c.91,0,1.28-.76,1.68-1.71,4-9.42,8-18.85,12.06-28.22a8.81,8.81,0,0,1,2.92-3.58,4.28,4.28,0,0,1,2.45-.78A4.83,4.83,0,0,1,63.16,324a5.07,5.07,0,0,1,2.06,5.45A21.78,21.78,0,0,1,64,332.73c-3.8,9-7.59,18-11.44,26.92-.67,1.57-.57,2.45,1.18,3.14a2.61,2.61,0,0,0,1,.21c1,0,1.27-.94,1.66-1.85,4.9-11.51,9.77-23,14.73-34.52a10,10,0,0,1,2.6-3.6,4.27,4.27,0,0,1,2.72-1m0-7a11.16,11.16,0,0,0-7.17,2.56A16.76,16.76,0,0,0,68,318.86c-.18-.16-.36-.3-.55-.45a11.76,11.76,0,0,0-7.19-2.5,11.23,11.23,0,0,0-6.41,2,15.7,15.7,0,0,0-5.37,6.54l0,0a12.88,12.88,0,0,0-4-1.78,11.85,11.85,0,0,0-3.06-.4c-5,0-9.37,3.1-11.5,8.1L25.79,340C21,351.22,16,362.88,11.26,374.47a46.11,46.11,0,0,0-3,13.78C7,405.9,18.44,421.12,35.61,424.44a54.86,54.86,0,0,0,10.49,1.05,45,45,0,0,0,28.34-9.83c4.89-3.83,9.94-7.66,14.83-11.36l6.28-4.77a12.28,12.28,0,0,0-3.06-21.72,11.71,11.71,0,0,0-4.15-.76,11.36,11.36,0,0,0-3.82.65c.29-.7.59-1.39.88-2.08h0l2.73-6.4,1.18-2.77L92,360.24c.57-1.37,1.16-2.73,1.74-4.1,1.47-3.44,3-7,4.42-10.59a12.65,12.65,0,0,0-.46-10.61,12.26,12.26,0,0,0-8.3-6.13c-.22-.05-.43-.09-.65-.12a12.15,12.15,0,0,0-4.61-11,12.71,12.71,0,0,0-7.65-2.66Z"/><path class="cls-4" d="M791.47,422a41.59,41.59,0,0,1-26.18-9.09c-4.92-3.84-10-7.68-14.88-11.39l-6.27-4.77c-3.78-2.87-4.15-6.29-3.8-8.65a8.76,8.76,0,0,1,6-7,8.28,8.28,0,0,1,2.92-.54,9.22,9.22,0,0,1,5.63,2.09l1.13.86c1.61,1.24,3.26,2.5,4.92,3.74-2.13-5-7-16.42-7-16.42h0l-2.44-5.73q-1.32-3.1-2.63-6.22l-1.74-4.08c-1.47-3.43-3-7-4.39-10.53a9,9,0,0,1,.28-7.67,9.13,9.13,0,0,1,7.85-4.57,8.11,8.11,0,0,1,2.79.49c-.34-.85-.68-1.72-1-2.64a8.76,8.76,0,0,1,2.94-9.36,9.16,9.16,0,0,1,5.52-1.94,7.66,7.66,0,0,1,4.94,1.76,13.23,13.23,0,0,1,3.35,4.38,9.33,9.33,0,0,1,2.86-3.52,8.31,8.31,0,0,1,5.07-1.78,7.82,7.82,0,0,1,4.43,1.39,12.36,12.36,0,0,1,4.14,5.06q1.11,2.52,2.2,5.05c0-.11.1-.22.16-.33A8.78,8.78,0,0,1,794,326.1a8.39,8.39,0,0,1,2.17-.28c3.54,0,6.71,2.29,8.28,6l4.06,9.48c4.83,11.28,9.83,22.94,14.53,34.52a42.9,42.9,0,0,1,2.73,12.73C827,404.36,816.69,418,801.29,421A51.88,51.88,0,0,1,791.47,422Z"/><path class="cls-3" d="M761.13,322.07a4.27,4.27,0,0,1,2.72,1,10,10,0,0,1,2.6,3.6c5,11.48,9.83,23,14.73,34.52.39.91.66,1.85,1.66,1.85a2.61,2.61,0,0,0,1-.21c1.75-.69,1.85-1.57,1.18-3.14-3.85-9-7.64-17.94-11.44-26.92a20.75,20.75,0,0,1-1.19-3.31,5.07,5.07,0,0,1,2.06-5.45,4.83,4.83,0,0,1,2.94-1.06,4.28,4.28,0,0,1,2.45.78,8.81,8.81,0,0,1,2.92,3.58c4.1,9.37,8.06,18.8,12.06,28.22.4.95.77,1.71,1.68,1.71a2.69,2.69,0,0,0,1-.24c1.68-.68,1.75-1.61,1.08-3-.58-1.25-1.09-2.54-1.63-3.81-1.88-4.46-3.85-8.88-5.61-13.39a5.13,5.13,0,0,1,3.58-7.24,4.77,4.77,0,0,1,1.29-.17c2.1,0,4,1.37,5.06,3.84,6.24,14.63,12.58,29.21,18.56,43.94a39.3,39.3,0,0,1,2.49,11.68c1.06,14-8,26.15-21.69,28.79a48.21,48.21,0,0,1-9.15.92,38,38,0,0,1-24-8.34c-7-5.48-14.11-10.8-21.18-16.19a5.44,5.44,0,0,1-2.46-5.35,5.29,5.29,0,0,1,3.75-4.25,4.87,4.87,0,0,1,1.68-.31,5.74,5.74,0,0,1,3.5,1.37c3.34,2.55,6.66,5.12,10.09,7.55a3.42,3.42,0,0,0,1.76.48,1.18,1.18,0,0,0,.77-.2,3.91,3.91,0,0,0,.65-2.7,7.43,7.43,0,0,0-.87-2.31q-4.61-10.87-9.24-21.76h0l-3.81-9c-2-4.84-4.17-9.65-6.1-14.53-1.35-3.45.36-6.6,3.73-7.33a5.76,5.76,0,0,1,1.15-.12c2.12,0,3.95,1.32,5,3.79,3.95,9.21,7.85,18.44,11.8,27.66.55,1.28,1,1.85,1.7,1.85a3.79,3.79,0,0,0,1.72-.65c1.69-1,.56-2.21.14-3.22-4.56-10.83-9.18-21.64-13.78-32.45a38.07,38.07,0,0,1-1.42-3.67,5.18,5.18,0,0,1,1.73-5.56,5.66,5.66,0,0,1,3.38-1.21m0-7h0a12.69,12.69,0,0,0-7.65,2.66,12.15,12.15,0,0,0-4.61,11c-.22,0-.43.07-.65.12a12.24,12.24,0,0,0-8.3,6.13,12.65,12.65,0,0,0-.46,10.61c1.42,3.59,2.94,7.15,4.42,10.59l1.74,4.1c.88,2.06,1.75,4.12,2.63,6.19l1.19,2.79,2.73,6.43h0l.87,2.05a11.4,11.4,0,0,0-3.82-.65,11.71,11.71,0,0,0-4.15.76A12.28,12.28,0,0,0,742,399.53l6.29,4.77c4.88,3.7,9.94,7.53,14.83,11.36a45,45,0,0,0,28.34,9.83A54.68,54.68,0,0,0,802,424.44c17.18-3.32,28.67-18.54,27.34-36.19a46.11,46.11,0,0,0-3-13.78c-4.71-11.59-9.7-23.25-14.53-34.52l-4.08-9.53c-2.13-5-6.54-8.1-11.5-8.1a11.79,11.79,0,0,0-3.06.4,12.88,12.88,0,0,0-4,1.78l0,0a15.78,15.78,0,0,0-5.37-6.54,11.26,11.26,0,0,0-6.41-2,11.76,11.76,0,0,0-7.19,2.5c-.19.15-.38.3-.55.45a16.76,16.76,0,0,0-1.31-1.23,11.16,11.16,0,0,0-7.17-2.56Z"/><path class="cls-1" d="M109.5,189.92c6-1.68,12.94-2.8,19-1.37,3.79.88,7.32,2.25,11.3,1.6,3.44-.56,6.77-2.43,10.27-2.76,5.09-.5,10.14,1.64,15.37,1.54a147.21,147.21,0,0,1,20.27.67,139.61,139.61,0,0,0,29.54.35c8.16-.85,16.07-.88,24.15-1.83,8.84-1,18.53,1.78,26.72,1.46"/><path class="cls-1" d="M107.89,241.25c8.1,0,15.44-1.2,23.43-2.31,2.19-.3,7.06-1.36,9.12-.22s2.14,3.89,4.67,4c2.76.1,6.68-2.27,9.54-2.75a31.63,31.63,0,0,1,5.13-.37,33.3,33.3,0,0,1,7.25.75c10,2,20.16.95,30.25.92,8.81,0,16.64-1.45,25.44-.42a179.82,179.82,0,0,0,21,.76c8,0,15.95.11,24,0"/><path class="cls-1" d="M108.05,293.72c2.57.76,5.43.21,8.1.31,6.35.25,14.8,1.78,20.53-1.87,2,4.88,10.39,1.9,14.12,1.55,5.74-.54,11.3.17,17.07.42a121.42,121.42,0,0,1,13.42,1.18,24.87,24.87,0,0,0,8,0c3.56-.59,7.71-3.19,11.26-3.26,2.88-.06,5.76,1.55,8.54,2.24a73.16,73.16,0,0,0,18.28,2.07c5.69,0,12,1.16,17.61.69,2.71-.23,4.35-1.62,6.79-2.69,4.82-2.14,10.53-.82,15.78-.34"/><rect class="cls-1" x="94.48" y="228.72" width="186.67" height="27.97" rx="3.6"/><rect class="cls-1" x="94.48" y="175.69" width="186.67" height="27.97" rx="3.6"/><rect class="cls-1" x="94.48" y="281.5" width="186.67" height="27.97" rx="3.6"/></svg>