<svg id="Layer_1" data-name="Layer 1" xmlns="http://www.w3.org/2000/svg" viewBox="0 0 371.14 363.83"><defs><style>.cls-1,.cls-2,.cls-3{fill:none;stroke:#bcbcbc;}.cls-1,.cls-2{stroke-miterlimit:10;}.cls-1{stroke-width:7px;}.cls-2,.cls-3{stroke-width:6px;}.cls-3{stroke-linejoin:round;}</style></defs><line class="cls-1" x1="141.39" y1="283.19" x2="141.39" y2="308.66"/><line class="cls-2" x1="226.3" y1="283.19" x2="226.3" y2="308.66"/><polygon class="cls-3" points="268.1 328.91 104.81 328.91 127.02 308.66 241.32 308.66 268.1 328.91"/><path class="cls-2" d="M265.93,330.87v14.7s.31,4.24-4.38,6.85H114.32s-6.87,0-7.5-6.2V330.87"/><rect class="cls-1" x="208.31" y="61.45" width="28.23" height="11.94"/><line class="cls-1" x1="251.83" y1="67.42" x2="278.21" y2="67.42"/><line class="cls-1" x1="290.82" y1="55.65" x2="314.36" y2="79.19"/><line class="cls-1" x1="290.82" y1="79.19" x2="314.36" y2="55.65"/><path class="cls-2" d="M73.29,120c8.51-1.93,18.49-3.21,27.17-1.58,5.42,1,10.46,2.59,16.15,1.84,4.92-.64,9.68-2.78,14.68-3.17,7.28-.56,14.48,1.88,22,1.77a263.36,263.36,0,0,1,29,.77,248.2,248.2,0,0,0,42.23.4c11.65-1,23-1,34.52-2.1,12.62-1.19,26.48,2,38.19,1.68"/><path class="cls-2" d="M71,165.08c11.58,0,22.07-1.38,33.49-2.65,3.13-.35,10.1-1.56,13-.25s3,4.46,6.67,4.56c3.95.11,9.55-2.6,13.63-3.16a58.45,58.45,0,0,1,7.35-.43,59.71,59.71,0,0,1,10.36.87c14.26,2.27,28.81,1.09,43.23,1.06,12.59,0,23.79-1.67,36.35-.48,9.94.94,20,.86,30.08.86,11.48,0,22.8.13,34.28,0"/><path class="cls-2" d="M71.21,212.64c3.68.88,7.77.24,11.58.36,9.08.28,21.16,2,29.34-2.15,2.86,5.6,14.86,2.18,20.18,1.78,8.21-.62,16.16.19,24.41.48,6.55.23,12.79.56,19.18,1.35a44.11,44.11,0,0,0,11.48,0c5.09-.68,11-3.66,16.08-3.74,4.12-.07,8.23,1.77,12.21,2.57a129.65,129.65,0,0,0,26.13,2.38c8.13,0,17.16,1.33,25.17.78,3.88-.26,6.21-1.85,9.7-3.09,6.89-2.44,15.05-.93,22.56-.38"/><rect class="cls-2" x="23.37" y="27.87" width="322.91" height="239.76" rx="3.6"/><rect class="cls-2" x="10.16" y="13.9" width="349.34" height="267.7" rx="3.6"/><rect class="cls-2" x="51.82" y="150.7" width="266.8" height="32.09" rx="3.6"/><rect class="cls-2" x="51.82" y="103.64" width="266.8" height="32.09" rx="3.6"/><rect class="cls-2" x="51.82" y="198.63" width="266.8" height="32.09" rx="3.6"/></svg>